<svg viewBox="0 0 940 445" role="img" aria-label="Warptiling changes which thread owns which 8 by 8 tile so that one warp covers a 64 by 32 block of C instead of a 16 by 128 strip. Per dot step the warp then needs 96 distinct floats from shared memory instead of 144, for the same 2048 FMAs." xmlns="http://www.w3.org/2000/svg"><defs><marker id="ar7" viewBox="0 0 10 10" refX="9" refY="5" markerWidth="7" markerHeight="7" orient="auto-start-reverse"><path d="M0,0 L10,5 L0,10 z" fill="currentColor"/></marker></defs><rect x="0" y="0" width="940" height="445" fill="#FFFFFF"/><style>
svg{font-family:"JetBrains Mono",ui-monospace,SFMono-Regular,Menlo,Consolas,monospace;color:#1B1F26}
.m{fill:#1B1F26}.mut{fill:#5E6772}.bold{font-weight:600}.on1{fill:#F4F5F7}
.ln{stroke:#1B1F26;stroke-width:1.2}.ln2{stroke:#1B1F26;stroke-width:1.2;stroke-dasharray:3 3}
.grid{stroke:#DDE1E7;stroke-width:1}.tick{stroke:#C8CDD5;stroke-width:.8}
.box{stroke:#1B1F26;stroke-width:1;fill:none}
.blk{stroke:#5E6772;stroke-width:.9;opacity:.65}.tick2{stroke:#C8CDD5;stroke-width:.9}
.f4{stroke:#1B1F26;stroke-width:1}.cell{stroke:#FFFFFF;stroke-width:.6}.dot{fill:#5E6772}
.fa1{fill:#0E8A8C}.fa2{fill:#8FCFD0}.fa3{fill:#D9EFEF}
.fb1{fill:#C4581C}.fb2{fill:#EDB08A}.fb3{fill:#F8E2D3}
.fc1{fill:#4A56C9}.fc2{fill:#C3C8F0}.fc3{fill:#E6E8F9}
.hlrow{fill:#F6D77A;fill-opacity:.45}.ph{stroke:#FFFFFF;stroke-width:1}.barw{fill:#F6D77A;fill-opacity:.55}
.cellb{stroke:#C8CDD5;stroke-width:1;fill:none}.cellb.fa2{fill:#8FCFD0}.cellb.fb2{fill:#EDB08A}
</style><text x="218.0" y="58" class="m bold" text-anchor="middle" font-size="12" >now:  threadRow = t / 16,  threadCol = t % 16</text><text x="218.0" y="72" class="m mut" text-anchor="middle" font-size="9" >warp w owns thread-rows 2w, 2w+1  -&gt;  16 rows x 128 cols of C</text><rect x="98" y="90" width="240" height="18" rx="0" class="fb3 box" /><rect x="98" y="90" width="240.0" height="18" rx="0" class="fb1" /><text x="92" y="103.0" class="m bold" text-anchor="end" font-size="9" >Bs[dot]</text><text x="344" y="103.0" class="m" text-anchor="start" font-size="9" >128 distinct</text><rect x="70" y="118" width="18" height="240" rx="0" class="fa3 box" /><rect x="70" y="118" width="18" height="30.0" rx="0" class="fa1" /><text x="79.0" y="370" class="m bold" text-anchor="middle" font-size="9" >As[dot]</text><text x="79.0" y="382" class="m" text-anchor="middle" font-size="9" >16</text><text x="79.0" y="393" class="m" text-anchor="middle" font-size="8" >distinct</text><rect x="98" y="118" width="15" height="15" rx="0" class="fc1 cell" /><rect x="113" y="118" width="15" height="15" rx="0" class="fc1 cell" /><rect x="128" y="118" width="15" height="15" rx="0" class="fc1 cell" /><rect x="143" y="118" width="15" height="15" rx="0" class="fc1 cell" /><rect x="158" y="118" width="15" height="15" rx="0" class="fc1 cell" /><rect x="173" y="118" width="15" height="15" rx="0" class="fc1 cell" /><rect x="188" y="118" width="15" height="15" rx="0" class="fc1 cell" /><rect x="203" y="118" width="15" height="15" rx="0" class="fc1 cell" /><rect x="218" y="118" width="15" height="15" rx="0" class="fc1 cell" /><rect x="233" y="118" width="15" height="15" rx="0" class="fc1 cell" /><rect x="248" y="118" width="15" height="15" rx="0" class="fc1 cell" /><rect x="263" y="118" width="15" height="15" rx="0" class="fc1 cell" /><rect x="278" y="118" width="15" height="15" rx="0" class="fc1 cell" /><rect x="293" y="118" width="15" height="15" rx="0" class="fc1 cell" /><rect x="308" y="118" width="15" height="15" rx="0" class="fc1 cell" /><rect x="323" y="118" width="15" height="15" rx="0" class="fc1 cell" /><rect x="98" y="133" width="15" height="15" rx="0" class="fc1 cell" /><rect x="113" y="133" width="15" height="15" rx="0" class="fc1 cell" /><rect x="128" y="133" width="15" height="15" rx="0" class="fc1 cell" /><rect x="143" y="133" width="15" height="15" rx="0" class="fc1 cell" /><rect x="158" y="133" width="15" height="15" rx="0" class="fc1 cell" /><rect x="173" y="133" width="15" height="15" rx="0" class="fc1 cell" /><rect x="188" y="133" width="15" height="15" rx="0" class="fc1 cell" /><rect x="203" y="133" width="15" height="15" rx="0" class="fc1 cell" /><rect x="218" y="133" width="15" height="15" rx="0" class="fc1 cell" /><rect x="233" y="133" width="15" height="15" rx="0" class="fc1 cell" /><rect x="248" y="133" width="15" height="15" rx="0" class="fc1 cell" /><rect x="263" y="133" width="15" height="15" rx="0" class="fc1 cell" /><rect x="278" y="133" width="15" height="15" rx="0" class="fc1 cell" /><rect x="293" y="133" width="15" height="15" rx="0" class="fc1 cell" /><rect x="308" y="133" width="15" height="15" rx="0" class="fc1 cell" /><rect x="323" y="133" width="15" height="15" rx="0" class="fc1 cell" /><rect x="98" y="148" width="15" height="15" rx="0" class="fc2 cell" /><rect x="113" y="148" width="15" height="15" rx="0" class="fc2 cell" /><rect x="128" y="148" width="15" height="15" rx="0" class="fc2 cell" /><rect x="143" y="148" width="15" height="15" rx="0" class="fc2 cell" /><rect x="158" y="148" width="15" height="15" rx="0" class="fc2 cell" /><rect x="173" y="148" width="15" height="15" rx="0" class="fc2 cell" /><rect x="188" y="148" width="15" height="15" rx="0" class="fc2 cell" /><rect x="203" y="148" width="15" height="15" rx="0" class="fc2 cell" /><rect x="218" y="148" width="15" height="15" rx="0" class="fc2 cell" /><rect x="233" y="148" width="15" height="15" rx="0" class="fc2 cell" /><rect x="248" y="148" width="15" height="15" rx="0" class="fc2 cell" /><rect x="263" y="148" width="15" height="15" rx="0" class="fc2 cell" /><rect x="278" y="148" width="15" height="15" rx="0" class="fc2 cell" /><rect x="293" y="148" width="15" height="15" rx="0" class="fc2 cell" /><rect x="308" y="148" width="15" height="15" rx="0" class="fc2 cell" /><rect x="323" y="148" width="15" height="15" rx="0" class="fc2 cell" /><rect x="98" y="163" width="15" height="15" rx="0" class="fc2 cell" /><rect x="113" y="163" width="15" height="15" rx="0" class="fc2 cell" /><rect x="128" y="163" width="15" height="15" rx="0" class="fc2 cell" /><rect x="143" y="163" width="15" height="15" rx="0" class="fc2 cell" /><rect x="158" y="163" width="15" height="15" rx="0" class="fc2 cell" /><rect x="173" y="163" width="15" height="15" rx="0" class="fc2 cell" /><rect x="188" y="163" width="15" height="15" rx="0" class="fc2 cell" /><rect x="203" y="163" width="15" height="15" rx="0" class="fc2 cell" /><rect x="218" y="163" width="15" height="15" rx="0" class="fc2 cell" /><rect x="233" y="163" width="15" height="15" rx="0" class="fc2 cell" /><rect x="248" y="163" width="15" height="15" rx="0" class="fc2 cell" /><rect x="263" y="163" width="15" height="15" rx="0" class="fc2 cell" /><rect x="278" y="163" width="15" height="15" rx="0" class="fc2 cell" /><rect x="293" y="163" width="15" height="15" rx="0" class="fc2 cell" /><rect x="308" y="163" width="15" height="15" rx="0" class="fc2 cell" /><rect x="323" y="163" width="15" height="15" rx="0" class="fc2 cell" /><rect x="98" y="178" width="15" height="15" rx="0" class="fc3 cell" /><rect x="113" y="178" width="15" height="15" rx="0" class="fc3 cell" /><rect x="128" y="178" width="15" height="15" rx="0" class="fc3 cell" /><rect x="143" y="178" width="15" height="15" rx="0" class="fc3 cell" /><rect x="158" y="178" width="15" height="15" rx="0" class="fc3 cell" /><rect x="173" y="178" width="15" height="15" rx="0" class="fc3 cell" /><rect x="188" y="178" width="15" height="15" rx="0" class="fc3 cell" /><rect x="203" y="178" width="15" height="15" rx="0" class="fc3 cell" /><rect x="218" y="178" width="15" height="15" rx="0" class="fc3 cell" /><rect x="233" y="178" width="15" height="15" rx="0" class="fc3 cell" /><rect x="248" y="178" width="15" height="15" rx="0" class="fc3 cell" /><rect x="263" y="178" width="15" height="15" rx="0" class="fc3 cell" /><rect x="278" y="178" width="15" height="15" rx="0" class="fc3 cell" /><rect x="293" y="178" width="15" height="15" rx="0" class="fc3 cell" /><rect x="308" y="178" width="15" height="15" rx="0" class="fc3 cell" /><rect x="323" y="178" width="15" height="15" rx="0" class="fc3 cell" /><rect x="98" y="193" width="15" height="15" rx="0" class="fc3 cell" /><rect x="113" y="193" width="15" height="15" rx="0" class="fc3 cell" /><rect x="128" y="193" width="15" height="15" rx="0" class="fc3 cell" /><rect x="143" y="193" width="15" height="15" rx="0" class="fc3 cell" /><rect x="158" y="193" width="15" height="15" rx="0" class="fc3 cell" /><rect x="173" y="193" width="15" height="15" rx="0" class="fc3 cell" /><rect x="188" y="193" width="15" height="15" rx="0" class="fc3 cell" /><rect x="203" y="193" width="15" height="15" rx="0" class="fc3 cell" /><rect x="218" y="193" width="15" height="15" rx="0" class="fc3 cell" /><rect x="233" y="193" width="15" height="15" rx="0" class="fc3 cell" /><rect x="248" y="193" width="15" height="15" rx="0" class="fc3 cell" /><rect x="263" y="193" width="15" height="15" rx="0" class="fc3 cell" /><rect x="278" y="193" width="15" height="15" rx="0" class="fc3 cell" /><rect x="293" y="193" width="15" height="15" rx="0" class="fc3 cell" /><rect x="308" y="193" width="15" height="15" rx="0" class="fc3 cell" /><rect x="323" y="193" width="15" height="15" rx="0" class="fc3 cell" /><rect x="98" y="208" width="15" height="15" rx="0" class="fc2 cell" /><rect x="113" y="208" width="15" height="15" rx="0" class="fc2 cell" /><rect x="128" y="208" width="15" height="15" rx="0" class="fc2 cell" /><rect x="143" y="208" width="15" height="15" rx="0" class="fc2 cell" /><rect x="158" y="208" width="15" height="15" rx="0" class="fc2 cell" /><rect x="173" y="208" width="15" height="15" rx="0" class="fc2 cell" /><rect x="188" y="208" width="15" height="15" rx="0" class="fc2 cell" /><rect x="203" y="208" width="15" height="15" rx="0" class="fc2 cell" /><rect x="218" y="208" width="15" height="15" rx="0" class="fc2 cell" /><rect x="233" y="208" width="15" height="15" rx="0" class="fc2 cell" /><rect x="248" y="208" width="15" height="15" rx="0" class="fc2 cell" /><rect x="263" y="208" width="15" height="15" rx="0" class="fc2 cell" /><rect x="278" y="208" width="15" height="15" rx="0" class="fc2 cell" /><rect x="293" y="208" width="15" height="15" rx="0" class="fc2 cell" /><rect x="308" y="208" width="15" height="15" rx="0" class="fc2 cell" /><rect x="323" y="208" width="15" height="15" rx="0" class="fc2 cell" /><rect x="98" y="223" width="15" height="15" rx="0" class="fc2 cell" /><rect x="113" y="223" width="15" height="15" rx="0" class="fc2 cell" /><rect x="128" y="223" width="15" height="15" rx="0" class="fc2 cell" /><rect x="143" y="223" width="15" height="15" rx="0" class="fc2 cell" /><rect x="158" y="223" width="15" height="15" rx="0" class="fc2 cell" /><rect x="173" y="223" width="15" height="15" rx="0" class="fc2 cell" /><rect x="188" y="223" width="15" height="15" rx="0" class="fc2 cell" /><rect x="203" y="223" width="15" height="15" rx="0" class="fc2 cell" /><rect x="218" y="223" width="15" height="15" rx="0" class="fc2 cell" /><rect x="233" y="223" width="15" height="15" rx="0" class="fc2 cell" /><rect x="248" y="223" width="15" height="15" rx="0" class="fc2 cell" /><rect x="263" y="223" width="15" height="15" rx="0" class="fc2 cell" /><rect x="278" y="223" width="15" height="15" rx="0" class="fc2 cell" /><rect x="293" y="223" width="15" height="15" rx="0" class="fc2 cell" /><rect x="308" y="223" width="15" height="15" rx="0" class="fc2 cell" /><rect x="323" y="223" width="15" height="15" rx="0" class="fc2 cell" /><rect x="98" y="238" width="15" height="15" rx="0" class="fc3 cell" /><rect x="113" y="238" width="15" height="15" rx="0" class="fc3 cell" /><rect x="128" y="238" width="15" height="15" rx="0" class="fc3 cell" /><rect x="143" y="238" width="15" height="15" rx="0" class="fc3 cell" /><rect x="158" y="238" width="15" height="15" rx="0" class="fc3 cell" /><rect x="173" y="238" width="15" height="15" rx="0" class="fc3 cell" /><rect x="188" y="238" width="15" height="15" rx="0" class="fc3 cell" /><rect x="203" y="238" width="15" height="15" rx="0" class="fc3 cell" /><rect x="218" y="238" width="15" height="15" rx="0" class="fc3 cell" /><rect x="233" y="238" width="15" height="15" rx="0" class="fc3 cell" /><rect x="248" y="238" width="15" height="15" rx="0" class="fc3 cell" /><rect x="263" y="238" width="15" height="15" rx="0" class="fc3 cell" /><rect x="278" y="238" width="15" height="15" rx="0" class="fc3 cell" /><rect x="293" y="238" width="15" height="15" rx="0" class="fc3 cell" /><rect x="308" y="238" width="15" height="15" rx="0" class="fc3 cell" /><rect x="323" y="238" width="15" height="15" rx="0" class="fc3 cell" /><rect x="98" y="253" width="15" height="15" rx="0" class="fc3 cell" /><rect x="113" y="253" width="15" height="15" rx="0" class="fc3 cell" /><rect x="128" y="253" width="15" height="15" rx="0" class="fc3 cell" /><rect x="143" y="253" width="15" height="15" rx="0" class="fc3 cell" /><rect x="158" y="253" width="15" height="15" rx="0" class="fc3 cell" /><rect x="173" y="253" width="15" height="15" rx="0" class="fc3 cell" /><rect x="188" y="253" width="15" height="15" rx="0" class="fc3 cell" /><rect x="203" y="253" width="15" height="15" rx="0" class="fc3 cell" /><rect x="218" y="253" width="15" height="15" rx="0" class="fc3 cell" /><rect x="233" y="253" width="15" height="15" rx="0" class="fc3 cell" /><rect x="248" y="253" width="15" height="15" rx="0" class="fc3 cell" /><rect x="263" y="253" width="15" height="15" rx="0" class="fc3 cell" /><rect x="278" y="253" width="15" height="15" rx="0" class="fc3 cell" /><rect x="293" y="253" width="15" height="15" rx="0" class="fc3 cell" /><rect x="308" y="253" width="15" height="15" rx="0" class="fc3 cell" /><rect x="323" y="253" width="15" height="15" rx="0" class="fc3 cell" /><rect x="98" y="268" width="15" height="15" rx="0" class="fc2 cell" /><rect x="113" y="268" width="15" height="15" rx="0" class="fc2 cell" /><rect x="128" y="268" width="15" height="15" rx="0" class="fc2 cell" /><rect x="143" y="268" width="15" height="15" rx="0" class="fc2 cell" /><rect x="158" y="268" width="15" height="15" rx="0" class="fc2 cell" /><rect x="173" y="268" width="15" height="15" rx="0" class="fc2 cell" /><rect x="188" y="268" width="15" height="15" rx="0" class="fc2 cell" /><rect x="203" y="268" width="15" height="15" rx="0" class="fc2 cell" /><rect x="218" y="268" width="15" height="15" rx="0" class="fc2 cell" /><rect x="233" y="268" width="15" height="15" rx="0" class="fc2 cell" /><rect x="248" y="268" width="15" height="15" rx="0" class="fc2 cell" /><rect x="263" y="268" width="15" height="15" rx="0" class="fc2 cell" /><rect x="278" y="268" width="15" height="15" rx="0" class="fc2 cell" /><rect x="293" y="268" width="15" height="15" rx="0" class="fc2 cell" /><rect x="308" y="268" width="15" height="15" rx="0" class="fc2 cell" /><rect x="323" y="268" width="15" height="15" rx="0" class="fc2 cell" /><rect x="98" y="283" width="15" height="15" rx="0" class="fc2 cell" /><rect x="113" y="283" width="15" height="15" rx="0" class="fc2 cell" /><rect x="128" y="283" width="15" height="15" rx="0" class="fc2 cell" /><rect x="143" y="283" width="15" height="15" rx="0" class="fc2 cell" /><rect x="158" y="283" width="15" height="15" rx="0" class="fc2 cell" /><rect x="173" y="283" width="15" height="15" rx="0" class="fc2 cell" /><rect x="188" y="283" width="15" height="15" rx="0" class="fc2 cell" /><rect x="203" y="283" width="15" height="15" rx="0" class="fc2 cell" /><rect x="218" y="283" width="15" height="15" rx="0" class="fc2 cell" /><rect x="233" y="283" width="15" height="15" rx="0" class="fc2 cell" /><rect x="248" y="283" width="15" height="15" rx="0" class="fc2 cell" /><rect x="263" y="283" width="15" height="15" rx="0" class="fc2 cell" /><rect x="278" y="283" width="15" height="15" rx="0" class="fc2 cell" /><rect x="293" y="283" width="15" height="15" rx="0" class="fc2 cell" /><rect x="308" y="283" width="15" height="15" rx="0" class="fc2 cell" /><rect x="323" y="283" width="15" height="15" rx="0" class="fc2 cell" /><rect x="98" y="298" width="15" height="15" rx="0" class="fc3 cell" /><rect x="113" y="298" width="15" height="15" rx="0" class="fc3 cell" /><rect x="128" y="298" width="15" height="15" rx="0" class="fc3 cell" /><rect x="143" y="298" width="15" height="15" rx="0" class="fc3 cell" /><rect x="158" y="298" width="15" height="15" rx="0" class="fc3 cell" /><rect x="173" y="298" width="15" height="15" rx="0" class="fc3 cell" /><rect x="188" y="298" width="15" height="15" rx="0" class="fc3 cell" /><rect x="203" y="298" width="15" height="15" rx="0" class="fc3 cell" /><rect x="218" y="298" width="15" height="15" rx="0" class="fc3 cell" /><rect x="233" y="298" width="15" height="15" rx="0" class="fc3 cell" /><rect x="248" y="298" width="15" height="15" rx="0" class="fc3 cell" /><rect x="263" y="298" width="15" height="15" rx="0" class="fc3 cell" /><rect x="278" y="298" width="15" height="15" rx="0" class="fc3 cell" /><rect x="293" y="298" width="15" height="15" rx="0" class="fc3 cell" /><rect x="308" y="298" width="15" height="15" rx="0" class="fc3 cell" /><rect x="323" y="298" width="15" height="15" rx="0" class="fc3 cell" /><rect x="98" y="313" width="15" height="15" rx="0" class="fc3 cell" /><rect x="113" y="313" width="15" height="15" rx="0" class="fc3 cell" /><rect x="128" y="313" width="15" height="15" rx="0" class="fc3 cell" /><rect x="143" y="313" width="15" height="15" rx="0" class="fc3 cell" /><rect x="158" y="313" width="15" height="15" rx="0" class="fc3 cell" /><rect x="173" y="313" width="15" height="15" rx="0" class="fc3 cell" /><rect x="188" y="313" width="15" height="15" rx="0" class="fc3 cell" /><rect x="203" y="313" width="15" height="15" rx="0" class="fc3 cell" /><rect x="218" y="313" width="15" height="15" rx="0" class="fc3 cell" /><rect x="233" y="313" width="15" height="15" rx="0" class="fc3 cell" /><rect x="248" y="313" width="15" height="15" rx="0" class="fc3 cell" /><rect x="263" y="313" width="15" height="15" rx="0" class="fc3 cell" /><rect x="278" y="313" width="15" height="15" rx="0" class="fc3 cell" /><rect x="293" y="313" width="15" height="15" rx="0" class="fc3 cell" /><rect x="308" y="313" width="15" height="15" rx="0" class="fc3 cell" /><rect x="323" y="313" width="15" height="15" rx="0" class="fc3 cell" /><rect x="98" y="328" width="15" height="15" rx="0" class="fc2 cell" /><rect x="113" y="328" width="15" height="15" rx="0" class="fc2 cell" /><rect x="128" y="328" width="15" height="15" rx="0" class="fc2 cell" /><rect x="143" y="328" width="15" height="15" rx="0" class="fc2 cell" /><rect x="158" y="328" width="15" height="15" rx="0" class="fc2 cell" /><rect x="173" y="328" width="15" height="15" rx="0" class="fc2 cell" /><rect x="188" y="328" width="15" height="15" rx="0" class="fc2 cell" /><rect x="203" y="328" width="15" height="15" rx="0" class="fc2 cell" /><rect x="218" y="328" width="15" height="15" rx="0" class="fc2 cell" /><rect x="233" y="328" width="15" height="15" rx="0" class="fc2 cell" /><rect x="248" y="328" width="15" height="15" rx="0" class="fc2 cell" /><rect x="263" y="328" width="15" height="15" rx="0" class="fc2 cell" /><rect x="278" y="328" width="15" height="15" rx="0" class="fc2 cell" /><rect x="293" y="328" width="15" height="15" rx="0" class="fc2 cell" /><rect x="308" y="328" width="15" height="15" rx="0" class="fc2 cell" /><rect x="323" y="328" width="15" height="15" rx="0" class="fc2 cell" /><rect x="98" y="343" width="15" height="15" rx="0" class="fc2 cell" /><rect x="113" y="343" width="15" height="15" rx="0" class="fc2 cell" /><rect x="128" y="343" width="15" height="15" rx="0" class="fc2 cell" /><rect x="143" y="343" width="15" height="15" rx="0" class="fc2 cell" /><rect x="158" y="343" width="15" height="15" rx="0" class="fc2 cell" /><rect x="173" y="343" width="15" height="15" rx="0" class="fc2 cell" /><rect x="188" y="343" width="15" height="15" rx="0" class="fc2 cell" /><rect x="203" y="343" width="15" height="15" rx="0" class="fc2 cell" /><rect x="218" y="343" width="15" height="15" rx="0" class="fc2 cell" /><rect x="233" y="343" width="15" height="15" rx="0" class="fc2 cell" /><rect x="248" y="343" width="15" height="15" rx="0" class="fc2 cell" /><rect x="263" y="343" width="15" height="15" rx="0" class="fc2 cell" /><rect x="278" y="343" width="15" height="15" rx="0" class="fc2 cell" /><rect x="293" y="343" width="15" height="15" rx="0" class="fc2 cell" /><rect x="308" y="343" width="15" height="15" rx="0" class="fc2 cell" /><rect x="323" y="343" width="15" height="15" rx="0" class="fc2 cell" /><rect x="98" y="118" width="240" height="240" rx="0" class="box" /><text x="105.5" y="129" class="m on1" text-anchor="middle" font-size="7" >t0</text><text x="330.5" y="129" class="m on1" text-anchor="middle" font-size="7" >t15</text><text x="105.5" y="144" class="m on1" text-anchor="middle" font-size="7" >t16</text><text x="330.5" y="144" class="m on1" text-anchor="middle" font-size="7" >t31</text><text x="218.0" y="372" class="m mut" text-anchor="middle" font-size="8" >C tile: 16 x 16 thread tiles of 8 x 8</text><text x="218.0" y="384" class="m mut" text-anchor="middle" font-size="8" >warp 0 = solid, other warps alternate</text><text x="218.0" y="406" class="m" text-anchor="middle" font-size="9" >per dot step, warp 0 touches</text><text x="218.0" y="419" class="m" text-anchor="middle" font-size="9" >16 As + 128 Bs = 144 floats</text><text x="218.0" y="432" class="m bold" text-anchor="middle" font-size="9" >2048 FMAs / 144 = 14.2 per float</text><text x="688.0" y="58" class="m bold" text-anchor="middle" font-size="12" >warptiled:  warp 2 x 4,  lanes 8 x 4</text><text x="688.0" y="72" class="m mut" text-anchor="middle" font-size="9" >warp w owns a 64 x 32 block  -&gt;  same 2048 outputs, squarer</text><rect x="568" y="90" width="240" height="18" rx="0" class="fb3 box" /><rect x="568" y="90" width="60.0" height="18" rx="0" class="fb1" /><text x="562" y="103.0" class="m bold" text-anchor="end" font-size="9" >Bs[dot]</text><text x="814" y="103.0" class="m" text-anchor="start" font-size="9" >32 distinct</text><rect x="540" y="118" width="18" height="240" rx="0" class="fa3 box" /><rect x="540" y="118" width="18" height="120.0" rx="0" class="fa1" /><text x="549.0" y="370" class="m bold" text-anchor="middle" font-size="9" >As[dot]</text><text x="549.0" y="382" class="m" text-anchor="middle" font-size="9" >64</text><text x="549.0" y="393" class="m" text-anchor="middle" font-size="8" >distinct</text><rect x="568" y="118" width="15" height="15" rx="0" class="fc1 cell" /><rect x="583" y="118" width="15" height="15" rx="0" class="fc1 cell" /><rect x="598" y="118" width="15" height="15" rx="0" class="fc1 cell" /><rect x="613" y="118" width="15" height="15" rx="0" class="fc1 cell" /><rect x="628" y="118" width="15" height="15" rx="0" class="fc2 cell" /><rect x="643" y="118" width="15" height="15" rx="0" class="fc2 cell" /><rect x="658" y="118" width="15" height="15" rx="0" class="fc2 cell" /><rect x="673" y="118" width="15" height="15" rx="0" class="fc2 cell" /><rect x="688" y="118" width="15" height="15" rx="0" class="fc3 cell" /><rect x="703" y="118" width="15" height="15" rx="0" class="fc3 cell" /><rect x="718" y="118" width="15" height="15" rx="0" class="fc3 cell" /><rect x="733" y="118" width="15" height="15" rx="0" class="fc3 cell" /><rect x="748" y="118" width="15" height="15" rx="0" class="fc2 cell" /><rect x="763" y="118" width="15" height="15" rx="0" class="fc2 cell" /><rect x="778" y="118" width="15" height="15" rx="0" class="fc2 cell" /><rect x="793" y="118" width="15" height="15" rx="0" class="fc2 cell" /><rect x="568" y="133" width="15" height="15" rx="0" class="fc1 cell" /><rect x="583" y="133" width="15" height="15" rx="0" class="fc1 cell" /><rect x="598" y="133" width="15" height="15" rx="0" class="fc1 cell" /><rect x="613" y="133" width="15" height="15" rx="0" class="fc1 cell" /><rect x="628" y="133" width="15" height="15" rx="0" class="fc2 cell" /><rect x="643" y="133" width="15" height="15" rx="0" class="fc2 cell" /><rect x="658" y="133" width="15" height="15" rx="0" class="fc2 cell" /><rect x="673" y="133" width="15" height="15" rx="0" class="fc2 cell" /><rect x="688" y="133" width="15" height="15" rx="0" class="fc3 cell" /><rect x="703" y="133" width="15" height="15" rx="0" class="fc3 cell" /><rect x="718" y="133" width="15" height="15" rx="0" class="fc3 cell" /><rect x="733" y="133" width="15" height="15" rx="0" class="fc3 cell" /><rect x="748" y="133" width="15" height="15" rx="0" class="fc2 cell" /><rect x="763" y="133" width="15" height="15" rx="0" class="fc2 cell" /><rect x="778" y="133" width="15" height="15" rx="0" class="fc2 cell" /><rect x="793" y="133" width="15" height="15" rx="0" class="fc2 cell" /><rect x="568" y="148" width="15" height="15" rx="0" class="fc1 cell" /><rect x="583" y="148" width="15" height="15" rx="0" class="fc1 cell" /><rect x="598" y="148" width="15" height="15" rx="0" class="fc1 cell" /><rect x="613" y="148" width="15" height="15" rx="0" class="fc1 cell" /><rect x="628" y="148" width="15" height="15" rx="0" class="fc2 cell" /><rect x="643" y="148" width="15" height="15" rx="0" class="fc2 cell" /><rect x="658" y="148" width="15" height="15" rx="0" class="fc2 cell" /><rect x="673" y="148" width="15" height="15" rx="0" class="fc2 cell" /><rect x="688" y="148" width="15" height="15" rx="0" class="fc3 cell" /><rect x="703" y="148" width="15" height="15" rx="0" class="fc3 cell" /><rect x="718" y="148" width="15" height="15" rx="0" class="fc3 cell" /><rect x="733" y="148" width="15" height="15" rx="0" class="fc3 cell" /><rect x="748" y="148" width="15" height="15" rx="0" class="fc2 cell" /><rect x="763" y="148" width="15" height="15" rx="0" class="fc2 cell" /><rect x="778" y="148" width="15" height="15" rx="0" class="fc2 cell" /><rect x="793" y="148" width="15" height="15" rx="0" class="fc2 cell" /><rect x="568" y="163" width="15" height="15" rx="0" class="fc1 cell" /><rect x="583" y="163" width="15" height="15" rx="0" class="fc1 cell" /><rect x="598" y="163" width="15" height="15" rx="0" class="fc1 cell" /><rect x="613" y="163" width="15" height="15" rx="0" class="fc1 cell" /><rect x="628" y="163" width="15" height="15" rx="0" class="fc2 cell" /><rect x="643" y="163" width="15" height="15" rx="0" class="fc2 cell" /><rect x="658" y="163" width="15" height="15" rx="0" class="fc2 cell" /><rect x="673" y="163" width="15" height="15" rx="0" class="fc2 cell" /><rect x="688" y="163" width="15" height="15" rx="0" class="fc3 cell" /><rect x="703" y="163" width="15" height="15" rx="0" class="fc3 cell" /><rect x="718" y="163" width="15" height="15" rx="0" class="fc3 cell" /><rect x="733" y="163" width="15" height="15" rx="0" class="fc3 cell" /><rect x="748" y="163" width="15" height="15" rx="0" class="fc2 cell" /><rect x="763" y="163" width="15" height="15" rx="0" class="fc2 cell" /><rect x="778" y="163" width="15" height="15" rx="0" class="fc2 cell" /><rect x="793" y="163" width="15" height="15" rx="0" class="fc2 cell" /><rect x="568" y="178" width="15" height="15" rx="0" class="fc1 cell" /><rect x="583" y="178" width="15" height="15" rx="0" class="fc1 cell" /><rect x="598" y="178" width="15" height="15" rx="0" class="fc1 cell" /><rect x="613" y="178" width="15" height="15" rx="0" class="fc1 cell" /><rect x="628" y="178" width="15" height="15" rx="0" class="fc2 cell" /><rect x="643" y="178" width="15" height="15" rx="0" class="fc2 cell" /><rect x="658" y="178" width="15" height="15" rx="0" class="fc2 cell" /><rect x="673" y="178" width="15" height="15" rx="0" class="fc2 cell" /><rect x="688" y="178" width="15" height="15" rx="0" class="fc3 cell" /><rect x="703" y="178" width="15" height="15" rx="0" class="fc3 cell" /><rect x="718" y="178" width="15" height="15" rx="0" class="fc3 cell" /><rect x="733" y="178" width="15" height="15" rx="0" class="fc3 cell" /><rect x="748" y="178" width="15" height="15" rx="0" class="fc2 cell" /><rect x="763" y="178" width="15" height="15" rx="0" class="fc2 cell" /><rect x="778" y="178" width="15" height="15" rx="0" class="fc2 cell" /><rect x="793" y="178" width="15" height="15" rx="0" class="fc2 cell" /><rect x="568" y="193" width="15" height="15" rx="0" class="fc1 cell" /><rect x="583" y="193" width="15" height="15" rx="0" class="fc1 cell" /><rect x="598" y="193" width="15" height="15" rx="0" class="fc1 cell" /><rect x="613" y="193" width="15" height="15" rx="0" class="fc1 cell" /><rect x="628" y="193" width="15" height="15" rx="0" class="fc2 cell" /><rect x="643" y="193" width="15" height="15" rx="0" class="fc2 cell" /><rect x="658" y="193" width="15" height="15" rx="0" class="fc2 cell" /><rect x="673" y="193" width="15" height="15" rx="0" class="fc2 cell" /><rect x="688" y="193" width="15" height="15" rx="0" class="fc3 cell" /><rect x="703" y="193" width="15" height="15" rx="0" class="fc3 cell" /><rect x="718" y="193" width="15" height="15" rx="0" class="fc3 cell" /><rect x="733" y="193" width="15" height="15" rx="0" class="fc3 cell" /><rect x="748" y="193" width="15" height="15" rx="0" class="fc2 cell" /><rect x="763" y="193" width="15" height="15" rx="0" class="fc2 cell" /><rect x="778" y="193" width="15" height="15" rx="0" class="fc2 cell" /><rect x="793" y="193" width="15" height="15" rx="0" class="fc2 cell" /><rect x="568" y="208" width="15" height="15" rx="0" class="fc1 cell" /><rect x="583" y="208" width="15" height="15" rx="0" class="fc1 cell" /><rect x="598" y="208" width="15" height="15" rx="0" class="fc1 cell" /><rect x="613" y="208" width="15" height="15" rx="0" class="fc1 cell" /><rect x="628" y="208" width="15" height="15" rx="0" class="fc2 cell" /><rect x="643" y="208" width="15" height="15" rx="0" class="fc2 cell" /><rect x="658" y="208" width="15" height="15" rx="0" class="fc2 cell" /><rect x="673" y="208" width="15" height="15" rx="0" class="fc2 cell" /><rect x="688" y="208" width="15" height="15" rx="0" class="fc3 cell" /><rect x="703" y="208" width="15" height="15" rx="0" class="fc3 cell" /><rect x="718" y="208" width="15" height="15" rx="0" class="fc3 cell" /><rect x="733" y="208" width="15" height="15" rx="0" class="fc3 cell" /><rect x="748" y="208" width="15" height="15" rx="0" class="fc2 cell" /><rect x="763" y="208" width="15" height="15" rx="0" class="fc2 cell" /><rect x="778" y="208" width="15" height="15" rx="0" class="fc2 cell" /><rect x="793" y="208" width="15" height="15" rx="0" class="fc2 cell" /><rect x="568" y="223" width="15" height="15" rx="0" class="fc1 cell" /><rect x="583" y="223" width="15" height="15" rx="0" class="fc1 cell" /><rect x="598" y="223" width="15" height="15" rx="0" class="fc1 cell" /><rect x="613" y="223" width="15" height="15" rx="0" class="fc1 cell" /><rect x="628" y="223" width="15" height="15" rx="0" class="fc2 cell" /><rect x="643" y="223" width="15" height="15" rx="0" class="fc2 cell" /><rect x="658" y="223" width="15" height="15" rx="0" class="fc2 cell" /><rect x="673" y="223" width="15" height="15" rx="0" class="fc2 cell" /><rect x="688" y="223" width="15" height="15" rx="0" class="fc3 cell" /><rect x="703" y="223" width="15" height="15" rx="0" class="fc3 cell" /><rect x="718" y="223" width="15" height="15" rx="0" class="fc3 cell" /><rect x="733" y="223" width="15" height="15" rx="0" class="fc3 cell" /><rect x="748" y="223" width="15" height="15" rx="0" class="fc2 cell" /><rect x="763" y="223" width="15" height="15" rx="0" class="fc2 cell" /><rect x="778" y="223" width="15" height="15" rx="0" class="fc2 cell" /><rect x="793" y="223" width="15" height="15" rx="0" class="fc2 cell" /><rect x="568" y="238" width="15" height="15" rx="0" class="fc3 cell" /><rect x="583" y="238" width="15" height="15" rx="0" class="fc3 cell" /><rect x="598" y="238" width="15" height="15" rx="0" class="fc3 cell" /><rect x="613" y="238" width="15" height="15" rx="0" class="fc3 cell" /><rect x="628" y="238" width="15" height="15" rx="0" class="fc2 cell" /><rect x="643" y="238" width="15" height="15" rx="0" class="fc2 cell" /><rect x="658" y="238" width="15" height="15" rx="0" class="fc2 cell" /><rect x="673" y="238" width="15" height="15" rx="0" class="fc2 cell" /><rect x="688" y="238" width="15" height="15" rx="0" class="fc3 cell" /><rect x="703" y="238" width="15" height="15" rx="0" class="fc3 cell" /><rect x="718" y="238" width="15" height="15" rx="0" class="fc3 cell" /><rect x="733" y="238" width="15" height="15" rx="0" class="fc3 cell" /><rect x="748" y="238" width="15" height="15" rx="0" class="fc2 cell" /><rect x="763" y="238" width="15" height="15" rx="0" class="fc2 cell" /><rect x="778" y="238" width="15" height="15" rx="0" class="fc2 cell" /><rect x="793" y="238" width="15" height="15" rx="0" class="fc2 cell" /><rect x="568" y="253" width="15" height="15" rx="0" class="fc3 cell" /><rect x="583" y="253" width="15" height="15" rx="0" class="fc3 cell" /><rect x="598" y="253" width="15" height="15" rx="0" class="fc3 cell" /><rect x="613" y="253" width="15" height="15" rx="0" class="fc3 cell" /><rect x="628" y="253" width="15" height="15" rx="0" class="fc2 cell" /><rect x="643" y="253" width="15" height="15" rx="0" class="fc2 cell" /><rect x="658" y="253" width="15" height="15" rx="0" class="fc2 cell" /><rect x="673" y="253" width="15" height="15" rx="0" class="fc2 cell" /><rect x="688" y="253" width="15" height="15" rx="0" class="fc3 cell" /><rect x="703" y="253" width="15" height="15" rx="0" class="fc3 cell" /><rect x="718" y="253" width="15" height="15" rx="0" class="fc3 cell" /><rect x="733" y="253" width="15" height="15" rx="0" class="fc3 cell" /><rect x="748" y="253" width="15" height="15" rx="0" class="fc2 cell" /><rect x="763" y="253" width="15" height="15" rx="0" class="fc2 cell" /><rect x="778" y="253" width="15" height="15" rx="0" class="fc2 cell" /><rect x="793" y="253" width="15" height="15" rx="0" class="fc2 cell" /><rect x="568" y="268" width="15" height="15" rx="0" class="fc3 cell" /><rect x="583" y="268" width="15" height="15" rx="0" class="fc3 cell" /><rect x="598" y="268" width="15" height="15" rx="0" class="fc3 cell" /><rect x="613" y="268" width="15" height="15" rx="0" class="fc3 cell" /><rect x="628" y="268" width="15" height="15" rx="0" class="fc2 cell" /><rect x="643" y="268" width="15" height="15" rx="0" class="fc2 cell" /><rect x="658" y="268" width="15" height="15" rx="0" class="fc2 cell" /><rect x="673" y="268" width="15" height="15" rx="0" class="fc2 cell" /><rect x="688" y="268" width="15" height="15" rx="0" class="fc3 cell" /><rect x="703" y="268" width="15" height="15" rx="0" class="fc3 cell" /><rect x="718" y="268" width="15" height="15" rx="0" class="fc3 cell" /><rect x="733" y="268" width="15" height="15" rx="0" class="fc3 cell" /><rect x="748" y="268" width="15" height="15" rx="0" class="fc2 cell" /><rect x="763" y="268" width="15" height="15" rx="0" class="fc2 cell" /><rect x="778" y="268" width="15" height="15" rx="0" class="fc2 cell" /><rect x="793" y="268" width="15" height="15" rx="0" class="fc2 cell" /><rect x="568" y="283" width="15" height="15" rx="0" class="fc3 cell" /><rect x="583" y="283" width="15" height="15" rx="0" class="fc3 cell" /><rect x="598" y="283" width="15" height="15" rx="0" class="fc3 cell" /><rect x="613" y="283" width="15" height="15" rx="0" class="fc3 cell" /><rect x="628" y="283" width="15" height="15" rx="0" class="fc2 cell" /><rect x="643" y="283" width="15" height="15" rx="0" class="fc2 cell" /><rect x="658" y="283" width="15" height="15" rx="0" class="fc2 cell" /><rect x="673" y="283" width="15" height="15" rx="0" class="fc2 cell" /><rect x="688" y="283" width="15" height="15" rx="0" class="fc3 cell" /><rect x="703" y="283" width="15" height="15" rx="0" class="fc3 cell" /><rect x="718" y="283" width="15" height="15" rx="0" class="fc3 cell" /><rect x="733" y="283" width="15" height="15" rx="0" class="fc3 cell" /><rect x="748" y="283" width="15" height="15" rx="0" class="fc2 cell" /><rect x="763" y="283" width="15" height="15" rx="0" class="fc2 cell" /><rect x="778" y="283" width="15" height="15" rx="0" class="fc2 cell" /><rect x="793" y="283" width="15" height="15" rx="0" class="fc2 cell" /><rect x="568" y="298" width="15" height="15" rx="0" class="fc3 cell" /><rect x="583" y="298" width="15" height="15" rx="0" class="fc3 cell" /><rect x="598" y="298" width="15" height="15" rx="0" class="fc3 cell" /><rect x="613" y="298" width="15" height="15" rx="0" class="fc3 cell" /><rect x="628" y="298" width="15" height="15" rx="0" class="fc2 cell" /><rect x="643" y="298" width="15" height="15" rx="0" class="fc2 cell" /><rect x="658" y="298" width="15" height="15" rx="0" class="fc2 cell" /><rect x="673" y="298" width="15" height="15" rx="0" class="fc2 cell" /><rect x="688" y="298" width="15" height="15" rx="0" class="fc3 cell" /><rect x="703" y="298" width="15" height="15" rx="0" class="fc3 cell" /><rect x="718" y="298" width="15" height="15" rx="0" class="fc3 cell" /><rect x="733" y="298" width="15" height="15" rx="0" class="fc3 cell" /><rect x="748" y="298" width="15" height="15" rx="0" class="fc2 cell" /><rect x="763" y="298" width="15" height="15" rx="0" class="fc2 cell" /><rect x="778" y="298" width="15" height="15" rx="0" class="fc2 cell" /><rect x="793" y="298" width="15" height="15" rx="0" class="fc2 cell" /><rect x="568" y="313" width="15" height="15" rx="0" class="fc3 cell" /><rect x="583" y="313" width="15" height="15" rx="0" class="fc3 cell" /><rect x="598" y="313" width="15" height="15" rx="0" class="fc3 cell" /><rect x="613" y="313" width="15" height="15" rx="0" class="fc3 cell" /><rect x="628" y="313" width="15" height="15" rx="0" class="fc2 cell" /><rect x="643" y="313" width="15" height="15" rx="0" class="fc2 cell" /><rect x="658" y="313" width="15" height="15" rx="0" class="fc2 cell" /><rect x="673" y="313" width="15" height="15" rx="0" class="fc2 cell" /><rect x="688" y="313" width="15" height="15" rx="0" class="fc3 cell" /><rect x="703" y="313" width="15" height="15" rx="0" class="fc3 cell" /><rect x="718" y="313" width="15" height="15" rx="0" class="fc3 cell" /><rect x="733" y="313" width="15" height="15" rx="0" class="fc3 cell" /><rect x="748" y="313" width="15" height="15" rx="0" class="fc2 cell" /><rect x="763" y="313" width="15" height="15" rx="0" class="fc2 cell" /><rect x="778" y="313" width="15" height="15" rx="0" class="fc2 cell" /><rect x="793" y="313" width="15" height="15" rx="0" class="fc2 cell" /><rect x="568" y="328" width="15" height="15" rx="0" class="fc3 cell" /><rect x="583" y="328" width="15" height="15" rx="0" class="fc3 cell" /><rect x="598" y="328" width="15" height="15" rx="0" class="fc3 cell" /><rect x="613" y="328" width="15" height="15" rx="0" class="fc3 cell" /><rect x="628" y="328" width="15" height="15" rx="0" class="fc2 cell" /><rect x="643" y="328" width="15" height="15" rx="0" class="fc2 cell" /><rect x="658" y="328" width="15" height="15" rx="0" class="fc2 cell" /><rect x="673" y="328" width="15" height="15" rx="0" class="fc2 cell" /><rect x="688" y="328" width="15" height="15" rx="0" class="fc3 cell" /><rect x="703" y="328" width="15" height="15" rx="0" class="fc3 cell" /><rect x="718" y="328" width="15" height="15" rx="0" class="fc3 cell" /><rect x="733" y="328" width="15" height="15" rx="0" class="fc3 cell" /><rect x="748" y="328" width="15" height="15" rx="0" class="fc2 cell" /><rect x="763" y="328" width="15" height="15" rx="0" class="fc2 cell" /><rect x="778" y="328" width="15" height="15" rx="0" class="fc2 cell" /><rect x="793" y="328" width="15" height="15" rx="0" class="fc2 cell" /><rect x="568" y="343" width="15" height="15" rx="0" class="fc3 cell" /><rect x="583" y="343" width="15" height="15" rx="0" class="fc3 cell" /><rect x="598" y="343" width="15" height="15" rx="0" class="fc3 cell" /><rect x="613" y="343" width="15" height="15" rx="0" class="fc3 cell" /><rect x="628" y="343" width="15" height="15" rx="0" class="fc2 cell" /><rect x="643" y="343" width="15" height="15" rx="0" class="fc2 cell" /><rect x="658" y="343" width="15" height="15" rx="0" class="fc2 cell" /><rect x="673" y="343" width="15" height="15" rx="0" class="fc2 cell" /><rect x="688" y="343" width="15" height="15" rx="0" class="fc3 cell" /><rect x="703" y="343" width="15" height="15" rx="0" class="fc3 cell" /><rect x="718" y="343" width="15" height="15" rx="0" class="fc3 cell" /><rect x="733" y="343" width="15" height="15" rx="0" class="fc3 cell" /><rect x="748" y="343" width="15" height="15" rx="0" class="fc2 cell" /><rect x="763" y="343" width="15" height="15" rx="0" class="fc2 cell" /><rect x="778" y="343" width="15" height="15" rx="0" class="fc2 cell" /><rect x="793" y="343" width="15" height="15" rx="0" class="fc2 cell" /><rect x="568" y="118" width="240" height="240" rx="0" class="box" /><text x="575.5" y="129" class="m on1" text-anchor="middle" font-size="7" >t0</text><text x="620.5" y="129" class="m on1" text-anchor="middle" font-size="7" >t3</text><text x="575.5" y="144" class="m on1" text-anchor="middle" font-size="7" >t4</text><text x="620.5" y="234" class="m on1" text-anchor="middle" font-size="7" >t31</text><text x="688.0" y="372" class="m mut" text-anchor="middle" font-size="8" >C tile: 16 x 16 thread tiles of 8 x 8</text><text x="688.0" y="384" class="m mut" text-anchor="middle" font-size="8" >warp 0 = solid, other warps alternate</text><text x="688.0" y="406" class="m" text-anchor="middle" font-size="9" >per dot step, warp 0 touches</text><text x="688.0" y="419" class="m" text-anchor="middle" font-size="9" >64 As + 32 Bs = 96 floats</text><text x="688.0" y="432" class="m bold" text-anchor="middle" font-size="9" >2048 FMAs / 96 = 21.3 per float</text><text x="470" y="158" class="m" text-anchor="middle" font-size="9" >same per-thread</text><text x="470" y="171" class="m mut" text-anchor="middle" font-size="9" >8 + 8 loads,</text><text x="470" y="184" class="m mut" text-anchor="middle" font-size="9" >64 FMAs</text><text x="470" y="208" class="m" text-anchor="middle" font-size="9" >only WHO owns</text><text x="470" y="221" class="m" text-anchor="middle" font-size="9" >which tile</text><text x="470" y="234" class="m" text-anchor="middle" font-size="9" >changes</text><line x1="440" y1="258" x2="500" y2="258" class="ln" marker-end="url(#ar7)" /><text x="470" y="278" class="m mut" text-anchor="middle" font-size="8" >rows + cols</text><text x="470" y="290" class="m bold" text-anchor="middle" font-size="10" >144 -&gt; 96</text></svg>